<svg width="87" height="45" viewBox="0 0 87 45" fill="none" xmlns="http://www.w3.org/2000/svg">
<path d="M86.8586 22.1427C86.7958 21.5555 86.6967 20.9726 86.562 20.3979L51.6377 20.367C51.7939 19.0006 52.1416 17.6634 52.67 16.3965C53.391 14.6472 54.4495 13.0619 55.7832 11.7336C57.0965 10.4449 58.6486 9.43324 60.35 8.75745C63.0845 7.56202 66.1176 7.25843 69.0296 7.88871C71.9416 8.51899 74.5886 10.0523 76.6039 12.2758L82.119 6.80095C80.1639 4.66254 77.7903 2.96156 75.1501 1.80695C72.2335 0.562597 69.0935 -0.0515482 65.93 0.00358881C62.9435 -0.0147887 59.9819 0.55659 57.2107 1.6859C54.558 2.76154 52.14 4.35595 50.0942 6.37868C48.0558 8.4199 46.4247 10.8411 45.2907 13.5094C44.3593 15.6852 43.7885 18.0024 43.6007 20.367H43.3732C43.1853 18.0022 42.6134 15.6849 41.6807 13.5094C40.5477 10.8406 38.9168 8.41916 36.8775 6.37868C34.8322 4.35536 32.414 2.76087 29.761 1.6859C23.9861 -0.601226 17.5675 -0.559857 11.8216 1.80132C9.18184 2.95664 6.80835 4.65752 4.85275 6.79532L10.3689 12.2701C12.4402 10.1325 15.0851 8.65886 17.9748 8.0334C20.8646 7.40794 23.8718 7.65788 26.6228 8.75182C28.3241 9.4272 29.8759 10.4389 31.1885 11.728C32.5229 13.0559 33.5819 14.6413 34.3029 16.3909C34.8315 17.6576 35.1792 18.9943 35.3352 20.3608L0.410827 20.3923C0.276096 20.967 0.17703 21.5493 0.114181 22.1365C0.0365279 22.8151 -0.00153746 23.4977 0.000406441 24.1809C-0.015 26.8404 0.407691 29.4841 1.25082 32.0024C2.07935 34.446 3.41355 36.6815 5.1641 38.5588C7.07945 40.616 9.40413 42.2366 11.9839 43.3129C14.8684 44.4793 17.9531 45.0515 21.0578 44.9963C24.0437 45.0148 27.0044 44.443 29.7746 43.3129C32.4283 42.2392 34.8467 40.644 36.8911 38.6196C38.9313 36.5798 40.5626 34.1588 41.6946 31.4895C42.2748 30.1451 42.7138 28.7421 43.005 27.3045H43.9951C44.2863 28.7418 44.7246 30.1446 45.3032 31.4895C46.4362 34.1582 48.0674 36.5791 50.1067 38.6196C52.1516 40.6434 54.5699 42.2385 57.2232 43.3129C59.9943 44.4429 62.9559 45.0146 65.9424 44.9963C69.0465 45.0517 72.1302 44.4794 75.0139 43.3129C77.5941 42.2374 79.919 40.6167 81.8337 38.5588C83.5848 36.6816 84.92 34.4461 85.7495 32.0024C86.5923 29.484 87.0147 26.8404 86.9996 24.1809C86.9916 23.4991 86.9445 22.8189 86.8586 22.1427ZM34.2951 28.609C33.5714 30.3642 32.5014 31.9506 31.151 33.2709C29.8238 34.5561 28.2631 35.5676 26.5557 36.2492C22.9167 37.6309 18.9116 37.6519 15.2587 36.3089C13.7852 35.7043 12.4296 34.8385 11.2555 33.7517C10.4192 32.9692 9.72645 32.0423 9.20948 31.0143C8.6122 29.8436 8.16406 28.6006 7.8761 27.3152H34.7668C34.6326 27.7548 34.4759 28.1871 34.2973 28.6102L34.2951 28.609ZM77.7553 31.0143C77.2382 32.0422 76.5457 32.9691 75.7096 33.7517C74.5355 34.8386 73.1797 35.7044 71.7061 36.3089C68.0531 37.6519 64.048 37.6309 60.4091 36.2492C58.7016 35.5671 57.1407 34.5557 55.8126 33.2709C54.4624 31.9508 53.393 30.3643 52.67 28.609C52.4904 28.1849 52.3329 27.7516 52.1982 27.3107H65.7468H79.0898C78.8019 28.598 78.3538 29.8427 77.7564 31.0154L77.7553 31.0143Z" fill="white"/>
</svg>
