<svg  height="25" viewBox="0 0 36 79" fill="none" xmlns="http://www.w3.org/2000/svg">
<path d="M17.7805 78.9999C11.9268 78.9999 7.50001 77.354 4.50001 74.0624C1.50001 70.6976 0 65.9064 0 59.6888V55.2999H11.4146V60.5666C11.4146 65.5407 13.5 68.0277 17.6707 68.0277C19.7195 68.0277 21.2561 67.4425 22.2805 66.2722C23.378 65.0287 23.9267 63.0537 23.9267 60.3472C23.9267 57.1287 23.195 54.3125 21.7316 51.8986C20.2681 49.4116 17.5608 46.4491 13.6096 43.0111C8.63404 38.6222 5.15842 34.6722 3.18281 31.1611C1.2072 27.5769 0.219393 23.5537 0.219393 19.0917C0.219393 13.0204 1.75593 8.33893 4.8291 5.04727C7.90227 1.68245 12.3657 0 18.2193 0C23.9998 0 28.3535 1.68245 31.2803 5.04727C34.2803 8.33893 35.7804 13.0935 35.7804 19.3111V22.4931H24.3657V18.5431C24.3657 15.9097 23.8535 14.0079 22.8292 12.8376C21.8049 11.5941 20.3049 10.9723 18.3292 10.9723C14.3048 10.9723 12.2927 13.4227 12.2927 18.3236C12.2927 21.1033 13.0244 23.7 14.4878 26.1139C16.0244 28.5278 18.7683 31.4537 22.7195 34.8917C27.7683 39.2806 31.2439 43.2672 33.1464 46.8514C35.0488 50.4357 36 54.6417 36 59.4695C36 65.7602 34.4268 70.588 31.2805 73.9528C28.2073 77.3176 23.7073 78.9999 17.7805 78.9999Z" fill="#E50914" fill-opacity="0.976471"/>
</svg>
