<svg width="73" height="22" viewBox="0 0 73 22" fill="none" xmlns="http://www.w3.org/2000/svg">
<path d="M4.94812 21.9868C3.31911 21.9868 2.08717 21.529 1.25231 20.6135C0.417438 19.6777 0 18.3451 0 16.6158V15.3952H3.17657V16.86C3.17657 18.2434 3.7569 18.9351 4.91757 18.9351C5.48772 18.9351 5.91535 18.7724 6.20043 18.4469C6.50585 18.101 6.65855 17.5517 6.65855 16.799C6.65855 15.9038 6.45494 15.1205 6.04767 14.4492C5.64041 13.7574 4.88699 12.9335 3.78742 11.9773C2.40276 10.7566 1.43554 9.658 0.885742 8.68146C0.335952 7.68457 0.0610547 6.56563 0.0610547 5.3246C0.0610547 3.636 0.488657 2.33395 1.34389 1.41844C2.19912 0.482587 3.44125 0.0146484 5.07026 0.0146484C6.6789 0.0146484 7.89049 0.482587 8.70499 1.41844C9.53986 2.33395 9.9573 3.65634 9.9573 5.38563V6.27063H6.78073V5.17201C6.78073 4.4396 6.63819 3.91066 6.35314 3.58514C6.06808 3.23929 5.65064 3.06635 5.10083 3.06635C3.98088 3.06635 3.42093 3.7479 3.42093 5.11098C3.42093 5.88408 3.62455 6.60632 4.03181 7.27769C4.45942 7.94906 5.22303 8.76284 6.32261 9.71903C7.72763 10.9397 8.69486 12.0485 9.22429 13.0454C9.75372 14.0423 10.0184 15.2121 10.0184 16.5548C10.0184 18.3045 9.58063 19.6472 8.70504 20.5831C7.84981 21.5189 6.5975 21.9868 4.94812 21.9868Z" fill="#E50914" fill-opacity="0.976471"/>
<path d="M12.1909 0.309326H15.0093L16.3121 14.6011H16.3653L17.7478 0.309326H20.9384L22.321 14.6011H22.3742L23.677 0.309326H26.2029L24.3151 18.9046H20.6725L19.3431 6.36607H19.2899L17.9605 18.9046H14.0787L12.1909 0.309326Z" fill="#E50914" fill-opacity="0.976471"/>
<path d="M45.4798 18.0191C44.1439 18.0191 43.1252 17.6437 42.4239 16.8929C41.7225 16.1254 41.3718 15.0326 41.3718 13.6144V4.40468C41.3718 2.98651 41.7225 1.90203 42.4239 1.15123C43.1252 0.383751 44.1439 0 45.4798 0C46.8157 0 47.8344 0.383751 48.5358 1.15123C49.2371 1.90203 49.5878 2.98651 49.5878 4.40468V5.90627H46.9827V4.22948C46.9827 3.07826 46.5068 2.50265 45.555 2.50265C44.6031 2.50265 44.1272 3.07826 44.1272 4.22948V13.8146C44.1272 14.9492 44.6031 15.5164 45.555 15.5164C46.5068 15.5164 46.9827 14.9492 46.9827 13.8146V10.386H45.6051V7.88335H49.5878V13.6144C49.5878 15.0326 49.2371 16.1254 48.5358 16.8929C47.8344 17.6437 46.8157 18.0191 45.4798 18.0191Z" fill="#E50914" fill-opacity="0.976471"/>
<path d="M55.5346 0.309814H59.5243L62.5768 19.0368H59.6314L59.0959 15.3182V15.3719H55.7488L55.2132 19.0371H52.4821L55.5346 0.309814ZM58.7478 12.8302L57.4357 3.57368H57.3819L56.0966 12.8302H58.7478Z" fill="#E50914" fill-opacity="0.976471"/>
<path d="M66.1277 3.37151H62.6151V0.319824H73.0001V3.37151H69.4875V21.6817H66.1277V3.37151Z" fill="#E50914" fill-opacity="0.976471"/>
<path d="M31.5453 0.304688H35.2543L38.0921 17.7143H35.3539L34.856 14.2572V14.3067H31.7444L31.2465 17.714H28.7074L31.5453 0.304688ZM34.5324 11.9443L33.3127 3.33895H33.2632L32.0683 11.9443H34.5324Z" fill="#E50914" fill-opacity="0.976471"/>
</svg>
